<svg width="20" height="17" viewBox="0 0 20 17" fill="none" xmlns="http://www.w3.org/2000/svg">
<path d="M19 13.0298C15.9166 12.849 13.608 13.5428 12.1868 14.1778C11.4754 14.4957 10.9127 14.8284 10.5 15.1067V3.35119C11.1668 2.79889 14.0294 0.720599 19 1.03153V13.0298ZM4.72694 13.2369C3.53879 13.0232 2.28754 12.9538 1 13.0297V1.03163C3.88753 0.851947 6.03923 1.48763 7.35872 2.07021C8.48568 2.56771 9.206 3.10829 9.5 3.35157V15.1068C9.08724 14.8285 8.52485 14.4959 7.81321 14.1778C6.85395 13.7492 5.81559 13.4326 4.72694 13.2369ZM19.5448 0.070317C16.1877 -0.231604 13.6905 0.505918 12.1868 1.17785C11.125 1.65235 10.3953 2.15918 10 2.46979C9.60466 2.15918 8.87495 1.65235 7.81321 1.17785C6.85395 0.749191 5.81559 0.432567 4.72694 0.236875C3.37185 -0.00677705 1.93462 -0.0627663 0.455187 0.070317C0.197483 0.0934837 0 0.309521 0 0.56831V13.5683C0 13.7087 0.0590276 13.8426 0.162651 13.9373C0.26633 14.0321 0.404948 14.0791 0.544813 14.0663C3.662 13.7857 5.97076 14.4574 7.35872 15.0702C8.85856 15.7323 9.63835 16.4709 9.65213 16.4841C9.74919 16.5781 9.87462 16.6249 9.99995 16.6249C10.0936 16.6249 10.187 16.5983 10.2686 16.5462C10.2696 16.5455 10.2707 16.545 10.2718 16.5443C10.2817 16.5379 10.2912 16.5308 10.3008 16.5236C10.3051 16.5203 10.3096 16.5171 10.3139 16.5137C10.3207 16.5083 10.3272 16.5023 10.3338 16.4964C10.3384 16.4922 10.3433 16.4885 10.3478 16.4842C10.3554 16.4768 11.1355 15.735 12.6412 15.0702C14.0292 14.4575 16.3379 13.786 19.4552 14.0663C19.5947 14.0791 19.7337 14.0321 19.8373 13.9373C19.941 13.8426 20 13.7087 20 13.5683V0.568306C20 0.309517 19.8025 0.0934803 19.5448 0.0703136L19.5448 0.070317Z" fill="#EF4348"/>
</svg>
