<svg width="18" height="14" viewBox="0 0 18 14" fill="none" xmlns="http://www.w3.org/2000/svg">
<path fill-rule="evenodd" clip-rule="evenodd" d="M11.75 7.6875L15.7994 7.6875C15.541 9.40799 14.5703 10.9402 13.125 11.9087L11.8944 12.7337L12.6506 13.875L13.8813 13.05C15.9851 11.648 17.2492 9.28752 17.25 6.75937L17.25 2.1875C17.25 1.42811 16.6344 0.8125 15.875 0.8125L11.75 0.8125C10.9906 0.812499 10.375 1.42811 10.375 2.1875L10.375 6.3125C10.375 7.07189 10.9906 7.6875 11.75 7.6875V7.6875ZM2.125 7.6875L6.17438 7.6875C5.91602 9.40799 4.94527 10.9402 3.5 11.9087L2.26938 12.7337L3.01875 13.875L4.25625 13.05C6.36006 11.648 7.62415 9.28752 7.625 6.75937L7.625 2.1875C7.625 1.42811 7.00939 0.812499 6.25 0.812499L2.125 0.812499C1.36561 0.812499 0.750001 1.42811 0.750001 2.1875L0.750001 6.3125C0.750001 7.07189 1.36561 7.6875 2.125 7.6875Z" fill="white"/>
</svg>
