<svg width="22" height="22" viewBox="0 0 22 22" fill="none" xmlns="http://www.w3.org/2000/svg">
<path fill-rule="evenodd" clip-rule="evenodd" d="M18.6313 12.3063L9.69376 3.36876C7.92942 1.73257 5.18716 1.78422 3.48569 3.48569C1.78422 5.18716 1.73257 7.92942 3.36876 9.69376L5.43126 11.7563L6.40063 10.7869L4.33813 8.72438C3.51044 7.95313 3.16973 6.79159 3.44967 5.69544C3.7296 4.59929 4.58554 3.74335 5.68169 3.46342C6.77784 3.18348 7.93938 3.52419 8.71063 4.35188L17.6481 13.2894C18.4758 14.0606 18.8165 15.2222 18.5366 16.3183C18.2567 17.4145 17.4007 18.2704 16.3046 18.5503C15.2084 18.8303 14.0469 18.4896 13.2756 17.6619L9.06126 13.4475C8.62405 13.0128 8.452 12.3778 8.6099 11.7818C8.7678 11.1858 9.23167 10.7193 9.82677 10.558C10.4219 10.3968 11.0578 10.5653 11.495 11L13.6744 13.1794L14.6438 12.21C14.6438 12.21 12.43 9.98938 12.4094 9.98251C11.1913 8.85759 9.30211 8.89588 8.13061 10.0692C6.95911 11.2426 6.92379 13.1318 8.05063 14.3481L12.3063 18.6313C14.0706 20.2674 16.8129 20.2158 18.5143 18.5143C20.2158 16.8129 20.2674 14.0706 18.6313 12.3063Z" fill="#666666"/>
</svg>
