<svg width="19" height="20" viewBox="0 0 19 20" fill="none" xmlns="http://www.w3.org/2000/svg">
<path fill-rule="evenodd" clip-rule="evenodd" d="M14.8124 12.75C13.7701 12.7552 12.7864 13.2331 12.138 14.0494L7.11241 10.9075C7.29557 10.3163 7.29557 9.68362 7.11241 9.09248L12.138 5.9506C13.1913 7.25476 15.0316 7.60903 16.4937 6.7891C17.9558 5.96916 18.6133 4.21415 18.0498 2.63536C17.4863 1.05658 15.8662 0.11447 14.2154 0.405598C12.5645 0.696726 11.3644 2.13618 11.3749 3.81248C11.3782 4.11991 11.4244 4.42538 11.5124 4.71998L6.48679 7.86185C5.5774 6.71705 4.04338 6.27273 2.66292 6.7543C1.28247 7.23587 0.357666 8.53794 0.357666 9.99998C0.357666 11.462 1.28247 12.7641 2.66292 13.2457C4.04338 13.7272 5.5774 13.2829 6.48679 12.1381L11.5124 15.28C11.4244 15.5746 11.3782 15.88 11.3749 16.1875C11.3749 18.086 12.9139 19.625 14.8124 19.625C16.7109 19.625 18.2499 18.086 18.2499 16.1875C18.2499 14.289 16.7109 12.75 14.8124 12.75ZM14.8124 1.74998C15.9515 1.74998 16.8749 2.67339 16.8749 3.81248C16.8749 4.95157 15.9515 5.87498 14.8124 5.87498C13.6733 5.87498 12.7499 4.95157 12.7499 3.81248C12.7499 2.67339 13.6733 1.74998 14.8124 1.74998ZM3.81241 12.0625C2.67333 12.0625 1.74991 11.1391 1.74991 9.99998C1.74991 8.86089 2.67333 7.93748 3.81241 7.93748C4.9515 7.93748 5.87491 8.86089 5.87491 9.99998C5.87491 11.1391 4.9515 12.0625 3.81241 12.0625V12.0625ZM14.8124 18.25C13.6733 18.25 12.7499 17.3266 12.7499 16.1875C12.7499 15.0484 13.6733 14.125 14.8124 14.125C15.9515 14.125 16.8749 15.0484 16.8749 16.1875C16.8749 17.3266 15.9515 18.25 14.8124 18.25V18.25Z" fill="#1F8BD8"/>
</svg>
