<?xml version="1.0" encoding="utf-8"?>
<!-- Generator: Adobe Illustrator 22.1.0, SVG Export Plug-In . SVG Version: 6.00 Build 0)  -->
<svg version="1.1" id="레이어_1" xmlns="http://www.w3.org/2000/svg" xmlns:xlink="http://www.w3.org/1999/xlink" x="0px"
	 y="0px" viewBox="0 0 22 22" style="enable-background:new 0 0 22 22;" xml:space="preserve">
<style type="text/css">
	.st0{fill:#FFFFFF;}
</style>
<path class="st0" d="M18.6,12.3L9.7,3.4C7.9,1.7,5.2,1.8,3.5,3.5S1.7,7.9,3.4,9.7l2.1,2.1l1-1L4.3,8.7C3.5,8,3.2,6.8,3.4,5.7
	c0.3-1.1,1.1-2,2.2-2.2c1.1-0.3,2.3,0.1,3,0.9l8.9,8.9c0.8,0.8,1.2,1.9,0.9,3c-0.3,1.1-1.1,2-2.2,2.2c-1.1,0.3-2.3-0.1-3-0.9
	l-4.2-4.2c-0.4-0.4-0.6-1.1-0.5-1.7c0.2-0.6,0.6-1.1,1.2-1.2c0.6-0.2,1.2,0,1.7,0.4l2.2,2.2l1-1c0,0-2.2-2.2-2.2-2.2
	c-1.2-1.1-3.1-1.1-4.3,0.1c-1.2,1.2-1.2,3.1-0.1,4.3l4.3,4.3c1.8,1.6,4.5,1.6,6.2-0.1C20.2,16.8,20.3,14.1,18.6,12.3z"/>
</svg>
