<?xml version="1.0" encoding="utf-8"?>
<!-- Generator: Adobe Illustrator 22.1.0, SVG Export Plug-In . SVG Version: 6.00 Build 0)  -->
<svg version="1.1" id="레이어_1" xmlns="http://www.w3.org/2000/svg" xmlns:xlink="http://www.w3.org/1999/xlink" x="0px"
	 y="0px" viewBox="0 0 20 17" style="enable-background:new 0 0 20 17;" xml:space="preserve">
<style type="text/css">
	.st0{fill:#FFFFFF;}
</style>
<path class="st0" d="M19,13c-3.1-0.2-5.4,0.5-6.8,1.1c-0.7,0.3-1.3,0.7-1.7,0.9V3.4C11.2,2.8,14,0.7,19,1V13z M4.7,13.2
	C3.5,13,2.3,13,1,13V1c2.9-0.2,5,0.5,6.4,1c1.1,0.5,1.8,1,2.1,1.3v11.8c-0.4-0.3-1-0.6-1.7-0.9C6.9,13.7,5.8,13.4,4.7,13.2z
	 M19.5,0.1c-3.4-0.3-5.9,0.4-7.4,1.1c-1.1,0.5-1.8,1-2.2,1.3C9.6,2.2,8.9,1.7,7.8,1.2c-1-0.4-2-0.7-3.1-0.9C3.4,0,1.9-0.1,0.5,0.1
	C0.2,0.1,0,0.3,0,0.6v13c0,0.1,0.1,0.3,0.2,0.4c0.1,0.1,0.2,0.1,0.4,0.1c3.1-0.3,5.4,0.4,6.8,1c1.5,0.7,2.3,1.4,2.3,1.4
	c0.1,0.1,0.2,0.1,0.3,0.1c0.1,0,0.2,0,0.3-0.1c0,0,0,0,0,0c0,0,0,0,0,0c0,0,0,0,0,0c0,0,0,0,0,0c0,0,0,0,0,0c0,0,0.8-0.7,2.3-1.4
	c1.4-0.6,3.7-1.3,6.8-1c0.1,0,0.3,0,0.4-0.1c0.1-0.1,0.2-0.2,0.2-0.4v-13C20,0.3,19.8,0.1,19.5,0.1L19.5,0.1z"/>
</svg>
